<?xml version="1.0" standalone="no"?>
<!DOCTYPE svg PUBLIC "-//W3C//DTD SVG 20010904//EN"
 "http://www.w3.org/TR/2001/REC-SVG-20010904/DTD/svg10.dtd">
<svg version="1.0" xmlns="http://www.w3.org/2000/svg"
 width="227.000000pt" height="247.000000pt" viewBox="0 0 227.000000 247.000000"
 preserveAspectRatio="xMidYMid meet">
<metadata>
Created by potrace 1.10, written by Peter Selinger 2001-2011
</metadata>
<g transform="translate(0.000000,247.000000) scale(0.100000,-0.100000)"
fill="#e535ab" stroke="none">
<path d="M1123 2423 c-3 -10 -26 -65 -50 -122 -24 -57 -43 -106 -43 -107 0 -2
13 -4 29 -4 22 0 30 6 35 25 6 22 12 25 50 25 35 0 45 -4 54 -24 11 -24 62
-43 62 -22 0 6 -20 63 -43 126 -35 95 -47 116 -65 118 -14 2 -24 -3 -29 -15z
m37 -72 c0 -5 3 -23 6 -40 6 -26 4 -31 -13 -31 -29 0 -31 6 -19 45 10 32 26
48 26 26z"/>
<path d="M865 2413 c-38 -9 -72 -17 -73 -19 -4 -3 47 -236 53 -242 2 -2 39 4
84 14 74 16 81 19 81 42 0 26 4 26 -102 5 -24 -5 -28 -2 -28 16 0 11 0 24 0
29 0 4 3 7 8 8 4 0 25 4 48 8 37 6 41 10 36 32 -3 17 -9 23 -21 20 -45 -14
-91 -17 -91 -8 0 6 -2 17 -6 25 -4 10 10 17 56 27 53 11 61 16 58 34 -4 27
-17 28 -103 9z"/>
<path d="M1385 2401 c-30 -13 -52 -42 -64 -86 -12 -46 -14 -105 -3 -121 29
-42 100 -56 140 -28 27 19 28 30 1 44 -15 9 -24 8 -35 -1 -11 -9 -21 -9 -39
-1 -28 13 -30 28 -11 92 11 39 17 45 44 48 23 2 34 -2 42 -18 8 -16 17 -19 33
-14 12 3 24 8 26 10 10 9 -34 57 -64 70 -39 16 -42 16 -70 5z"/>
<path d="M1589 2329 c-11 -22 0 -38 28 -39 26 0 21 -22 -23 -105 -25 -48 -44
-88 -42 -90 2 -1 12 -7 24 -13 20 -10 24 -5 65 76 24 48 45 89 47 91 1 3 16
-3 32 -12 28 -17 29 -17 40 4 7 11 10 22 8 24 -4 4 -161 85 -165 85 -1 0 -7
-10 -14 -21z"/>
<path d="M630 2331 c-37 -12 -110 -50 -110 -59 0 -12 104 -222 110 -222 3 0
14 6 24 13 18 13 17 15 -3 55 -11 23 -21 43 -21 45 0 13 41 13 51 1 7 -8 25
-24 40 -35 23 -16 31 -17 54 -7 22 10 24 14 13 23 -68 50 -78 63 -67 89 15 33
-3 79 -37 95 -14 6 -26 11 -27 10 -1 0 -13 -4 -27 -8z m40 -70 c0 -20 -34 -51
-57 -51 -21 0 -27 42 -7 57 28 20 64 17 64 -6z"/>
<path d="M1716 2144 c-10 -25 -7 -30 17 -41 38 -18 192 -169 246 -242 92 -124
162 -285 192 -441 18 -94 15 -299 -6 -395 -31 -146 -95 -287 -189 -420 -48
-67 -173 -190 -236 -231 -40 -27 -46 -38 -31 -62 6 -10 28 2 87 46 222 165
375 414 424 692 19 106 15 311 -8 416 -44 198 -133 367 -269 513 -76 81 -193
181 -213 181 -4 0 -11 -7 -14 -16z"/>
<path d="M415 2071 c-97 -86 -99 -89 -164 -175 -96 -127 -173 -305 -202 -468
-17 -91 -17 -301 0 -388 49 -257 189 -497 380 -652 69 -56 76 -59 88 -42 18
24 17 26 -20 52 -54 38 -176 162 -222 226 -65 92 -131 230 -162 341 -26 93
-28 112 -27 280 1 165 3 187 28 269 65 215 177 390 336 522 39 32 70 61 70 64
0 3 -6 14 -13 24 -11 16 -20 11 -92 -53z"/>
<path d="M715 1948 c-11 -6 -23 -16 -27 -22 -14 -21 -8 -73 10 -89 37 -33 104
-14 113 33 6 31 -12 71 -37 80 -31 12 -34 12 -59 -2z m63 -60 c-4 -30 -33 -46
-55 -32 -21 13 -19 44 4 61 22 17 55 -2 51 -29z"/>
<path d="M1483 1942 c-73 -58 8 -160 85 -106 15 10 22 25 22 47 0 38 -7 50
-37 66 -29 15 -44 14 -70 -7z m61 -28 c20 -19 20 -38 1 -54 -18 -15 -45 -10
-59 12 -8 13 -6 22 8 37 23 25 30 26 50 5z"/>
<path d="M785 1777 c-44 -44 -59 -101 -52 -207 3 -47 8 -93 12 -102 5 -12 3
-18 -6 -18 -24 0 -140 -59 -181 -91 -49 -39 -68 -76 -68 -132 0 -37 6 -51 41
-90 36 -41 132 -99 201 -120 13 -5 15 -12 7 -44 -5 -21 -9 -72 -9 -113 0 -87
25 -149 73 -184 60 -44 164 -18 275 67 l57 44 50 -38 c77 -60 124 -81 191 -86
57 -5 63 -4 97 27 23 20 41 47 48 73 13 48 15 143 4 205 -6 36 -4 43 12 48 58
20 144 65 176 94 129 113 67 251 -146 328 l-48 17 6 45 c13 88 8 186 -13 227
-34 65 -55 78 -131 77 -71 -1 -105 -16 -201 -88 l-46 -35 -49 39 c-78 61 -145
90 -210 90 -51 0 -60 -3 -90 -33z m189 -27 c31 -16 74 -44 95 -62 l39 -32 -64
-76 -63 -75 -100 -20 -100 -21 -5 21 c-14 60 -17 148 -6 194 24 101 99 127
204 71z m490 -1 c14 -17 26 -34 26 -37 1 -4 5 -27 10 -52 7 -38 -2 -176 -14
-187 -1 -2 -47 4 -102 14 l-99 16 -63 79 -63 78 33 30 c54 49 144 90 199 90
40 0 51 -4 73 -31z m-224 -239 c0 -3 -47 -5 -105 -5 -58 0 -105 3 -105 7 0 3
23 32 52 63 l52 57 53 -58 c29 -33 52 -61 53 -64z m31 -46 c10 -6 104 -165
118 -201 12 -29 10 -37 -16 -90 -16 -32 -45 -83 -65 -115 l-37 -56 -75 -7
c-42 -4 -104 -4 -139 -1 -62 7 -64 8 -95 56 -18 27 -48 79 -66 116 l-35 67 26
51 c14 28 44 81 66 118 36 59 45 68 77 71 38 5 231 -2 241 -9z m-375 -98 l-54
-97 -27 81 c-15 45 -25 83 -23 85 4 4 152 33 155 30 2 -1 -21 -45 -51 -99z
m571 69 c9 -3 5 -25 -14 -80 -24 -66 -43 -96 -43 -65 0 6 -20 46 -45 89 -25
43 -45 80 -45 83 0 5 120 -17 147 -27z m-688 -82 c13 -38 28 -79 33 -93 8 -21
4 -43 -23 -118 -22 -60 -39 -92 -49 -92 -26 0 -135 56 -173 89 -92 81 -57 179
88 247 38 18 77 33 86 34 10 0 23 -22 38 -67z m814 39 c203 -93 205 -218 3
-313 -79 -37 -92 -37 -100 4 -4 17 -17 58 -30 90 l-24 58 29 82 c16 45 32 88
34 95 6 17 18 15 88 -16z m-651 -369 c6 -8 9 -15 7 -17 -4 -4 -151 23 -158 29
-3 4 37 131 46 148 3 5 25 -26 50 -69 24 -43 49 -84 55 -91z m532 31 c6 -18
-1 -21 -76 -36 -46 -9 -85 -14 -87 -12 -2 1 4 10 13 20 9 9 35 50 58 92 l42
75 22 -59 c12 -32 24 -68 28 -80z m-571 -76 c71 -11 80 -14 104 -47 15 -20 45
-55 66 -78 l38 -41 -53 -41 c-176 -132 -290 -100 -292 84 -1 39 3 87 7 108 7
34 11 38 30 33 12 -3 57 -11 100 -18z m592 -17 c4 -22 7 -68 7 -103 0 -131
-53 -189 -153 -167 -43 10 -105 45 -163 93 l-28 23 66 79 66 79 87 16 c49 9
93 17 100 18 6 0 14 -17 18 -38z m-305 -61 c-28 -33 -56 -60 -60 -60 -5 0 -30
26 -56 58 l-47 57 104 5 c57 3 106 4 108 3 2 -1 -20 -29 -49 -63z"/>
<path d="M1074 1335 c-14 -14 -24 -31 -21 -38 6 -19 59 -21 69 -3 10 18 28 12
28 -9 0 -7 -21 -36 -46 -64 -25 -27 -49 -64 -54 -81 l-9 -30 90 0 c88 0 89 0
89 25 0 23 -4 25 -40 25 -35 0 -54 12 -32 22 24 11 72 82 72 108 0 68 -94 97
-146 45z m33 -169 c-3 -8 -1 -17 6 -20 7 -2 4 -5 -5 -5 -10 -1 -18 1 -18 3 0
10 13 36 17 36 3 0 3 -6 0 -14z"/>
<path d="M335 1280 c-47 -52 7 -134 72 -109 15 5 31 16 35 22 14 22 8 74 -10
90 -25 23 -75 21 -97 -3z m73 -19 c8 -4 12 -19 10 -32 -4 -30 -46 -39 -65 -14
-25 35 18 70 55 46z"/>
<path d="M1831 1274 c-12 -15 -21 -30 -21 -35 0 -26 23 -58 50 -69 28 -12 34
-11 58 7 33 25 41 76 16 104 -26 29 -78 25 -103 -7z m79 -19 c19 -23 3 -57
-27 -53 -34 4 -51 31 -34 52 17 20 45 21 61 1z"/>
<path d="M702 634 c-16 -11 -22 -25 -22 -54 0 -29 6 -43 22 -54 50 -36 108 -4
108 58 0 38 -28 66 -65 66 -11 0 -31 -7 -43 -16z m66 -26 c28 -28 -4 -77 -41
-62 -22 8 -28 42 -10 59 18 18 35 19 51 3z"/>
<path d="M1475 630 c-40 -44 -9 -120 49 -120 33 0 66 36 66 70 0 61 -76 93
-115 50z m73 -22 c18 -18 14 -46 -7 -58 -11 -5 -22 -10 -25 -10 -8 0 -36 31
-36 40 0 13 30 40 44 40 6 0 17 -5 24 -12z"/>
<path d="M1548 392 c-43 -24 -78 -50 -78 -58 0 -22 28 -28 53 -11 23 15 24 14
73 -74 27 -49 52 -89 55 -89 3 0 14 6 24 14 17 12 16 18 -32 103 l-50 90 29
12 c31 14 34 20 16 43 -11 13 -22 10 -90 -30z"/>
<path d="M587 325 c-31 -57 -57 -108 -57 -114 0 -9 39 -26 44 -19 1 1 13 20
25 40 15 25 27 35 38 31 12 -5 14 -17 9 -63 -6 -54 -5 -57 19 -68 14 -7 28
-12 30 -12 3 0 5 24 5 53 0 51 1 53 34 65 45 17 66 63 45 100 -11 21 -109 90
-129 92 -3 0 -31 -47 -63 -105z m127 12 c27 -22 27 -24 11 -40 -9 -10 -20 -15
-24 -12 -5 2 -20 9 -35 15 -26 9 -26 10 -10 35 20 31 22 31 58 2z"/>
<path d="M841 288 c-17 -54 -52 -200 -49 -203 8 -8 163 -43 170 -39 4 3 8 14
8 24 0 14 -12 21 -55 31 -52 11 -56 14 -53 38 3 27 8 28 69 16 29 -5 37 -3 43
11 8 21 -6 31 -57 40 -34 5 -38 9 -33 28 3 11 6 24 6 28 0 3 25 0 55 -8 60
-16 75 -13 75 15 0 13 -16 21 -72 34 -95 22 -95 22 -107 -15z"/>
<path d="M1339 305 c-40 -21 -50 -62 -34 -130 17 -76 46 -105 103 -105 35 0
49 6 74 30 16 17 28 36 26 43 -7 18 -58 22 -58 4 0 -16 -21 -27 -50 -27 -37 0
-61 122 -28 144 14 8 23 8 39 -2 18 -11 24 -11 41 5 19 17 19 18 -2 35 -27 21
-75 23 -111 3z"/>
<path d="M1102 228 c-11 -29 -32 -84 -46 -122 -14 -37 -26 -70 -26 -72 0 -2
13 -4 29 -4 22 0 30 6 35 25 6 23 11 25 58 25 28 0 48 -3 45 -6 -13 -13 14
-44 38 -44 14 0 25 3 25 8 0 4 -21 60 -47 125 -40 101 -49 117 -69 117 -18 0
-27 -10 -42 -52z m67 -90 c1 -5 -11 -8 -25 -8 -22 0 -24 3 -19 23 4 12 9 31
12 42 5 17 8 15 19 -15 7 -19 13 -38 13 -42z"/>
</g>
</svg>
